<svg xmlns="http://www.w3.org/2000/svg" width="474" height="474"><path fill="#ffbd47" fill-rule="evenodd" d="M203.5 7.015c-28.582 4.377-59.604 15.119-83 28.742C91.945 52.382 62.784 79.64 44.28 107c-7.446 11.01-17.315 29.213-21.416 39.5-.877 2.2-2.514 6.25-3.638 9-3.064 7.499-7.797 24.446-10.752 38.5-2.24 10.655-2.71 15.906-3.182 35.581-.734 30.591 1.074 45.544 8.811 72.87 4.968 17.547 10.991 31.465 23.174 53.549 13.624 24.696 43.799 56.325 71.223 74.656 17.551 11.731 42.021 23.126 62.5 29.104 24.073 7.027 39.608 9.268 62.5 9.017l17-.186-17.5-.585c-15.987-.533-18.71-.905-31.5-4.3-7.7-2.044-17.15-4.871-21-6.283s-8.515-3.02-10.367-3.574c-9.79-2.929-52.078-26.143-56.133-30.813-.825-.95-4.65-4.204-8.5-7.23-8.643-6.792-27.123-25.964-32.789-34.015-11.549-16.41-15.359-22.154-21.278-32.076C47.895 343.784 45 338.429 45 337.817s-1.423-4.085-3.161-7.716c-5.191-10.84-9.365-23.64-13.729-42.101-4.155-17.578-5.403-29.651-5.308-51.33.102-23.1 1.3-34.071 5.698-52.17 7.979-32.832 19.161-57.498 38.515-84.96 11.894-16.877 39.563-44.327 53.485-53.061 1.65-1.036 4.575-3.086 6.5-4.557 4.873-3.722 37.843-20.655 41.5-21.313 4.474-.805 15.581-4.461 19-6.254 4.854-2.547 12.707-4.253 27.3-5.931 7.535-.866 14.128-1.991 14.65-2.5 1.56-1.517-12.879-.911-25.95 1.091m63.262.692c1.244.239 3.044.23 4-.02s-.062-.446-2.262-.435-2.982.216-1.738.455M274 9c.825.533 3.3.923 5.5.866 3.853-.099 3.89-.131 1-.866-1.65-.42-4.125-.81-5.5-.866-1.962-.081-2.177.105-1 .866m28 6c3.419 1.095 6.048 1.095 3.5 0-1.1-.473-2.9-.846-4-.83-1.608.024-1.51.186.5.83m7 1.954c.825.559 2.084 1.022 2.798 1.031s3.155.912 5.424 2.008 4.336 1.783 4.593 1.525c.578-.578-7.234-3.955-11.315-4.891-2.185-.501-2.592-.412-1.5.327m27.557 11.464c1.067.78 2.153 1.206 2.412.946.551-.55-2.028-2.326-3.41-2.349-.518-.008-.068.623.998 1.403m6.558 3.44c1.312 1.021 4.073 2.462 6.135 3.201 2.063.738 3.75 1.702 3.75 2.142s.477.799 1.059.799c2.167 0-.293-1.991-6.117-4.95-6.896-3.504-8.212-3.829-4.827-1.192M358 40.052c2.606 1.774 7 4.017 7 3.572 0-.554-6.901-4.629-7.807-4.609-.381.009-.018.475.807 1.037m-133.5.619c-24.444 3.028-32.775 4.728-48.401 9.879-25.264 8.328-39.308 15.905-63.735 34.387-9.432 7.136-23.499 21.624-31.146 32.077-1.805 2.467-4.767 6.511-6.581 8.986-14.345 19.571-26.639 50.1-31.141 77.333-1.955 11.824-2.481 18.823-2.595 34.5-.143 19.711.322 24.502 4.089 42.167 7.138 33.471 28.971 73.897 51.484 95.333 23.195 22.083 51.74 39.6 77.026 47.267 3.3 1.001 6.471 2.154 7.046 2.563 4.433 3.15 62.597 10.98 58.454 7.869-1.138-.855.429-1.012 6.5-.651 5.426.322 6.713.222 4-.311-3.859-.759-3.887-.791-.784-.928 4.258-.188 30.409-7.521 38.439-10.779 24.167-9.805 52.182-28.046 67.191-43.747 25.358-26.528 38.58-48.427 50.627-83.851 5.971-17.557 6.036-17.871 6.546-31.5.284-7.571.684-16.24.89-19.265.706-10.377-2.003-43.927-3.683-45.607-.231-.232-1.509.435-2.838 1.481s-5.61 2.852-9.511 4.014c-8.289 2.468-8.723 2.516-7.789.862q.698-1.24-.276-.25c-1.22 1.242-.455 10.706.802 9.929.503-.31 4.142-1.459 8.087-2.552 7.072-1.96 7.21-1.961 9.736-.074 3.308 2.469 3.662 8.863.586 10.588-1.087.61-2.437 1.65-3 2.311-1.099 1.291-15.376 5.507-16.434 4.853-.351-.217-.626 1.594-.613 4.022s.483 4.418 1.044 4.42 4.283-.901 8.271-2.006c6.763-1.874 7.419-1.9 9.742-.378 2.72 1.783 3.988 5.169 3.047 8.134-1.281 4.037-6.627 6.342-27.347 11.792-21.689 5.705-25.058 6.236-27.033 4.261-.933-.933-1.2-.832-1.2.455 0 1.089 1.111 1.839 3.25 2.196 14.132 2.354 37.178 6.762 39.007 7.462 1.234.471 3.129 1.841 4.213 3.044 1.959 2.175 1.959 2.204-.022 5.864-1.637 3.023-2.523 3.662-4.97 3.584-1.638-.052-2.184.092-1.213.321 3.161.747.724 2.274-3.628 2.274-3.638 0-63.129-10.249-66.239-11.412-.606-.226-3.395 1.324-6.197 3.445C309.549 281.581 302 281.1 302 274c0-2.731 3.108-6.559 4.331-5.336.368.368.669.162.669-.458s2.137-2.528 4.75-4.239c3.773-2.472 4.795-3.737 4.968-6.151l.219-3.039-5.445.681c-4.956.619-5.672.453-7.968-1.844-1.388-1.387-2.524-3.158-2.524-3.934 0-1.738 4.021-6.993 4.774-6.239.301.3 1.119-.27 1.818-1.269s3.055-2.349 5.236-3.002c2.181-.654 4.243-1.912 4.582-2.797.545-1.418-.151-1.527-5.867-.914-7.961.852-10.001.264-11.481-3.308-1.216-2.938-.038-8.151 1.842-8.151.524 0 1.548-.568 2.275-1.262 2.211-2.111 6.233-3.521 12.158-4.261l5.643-.705-2.596-2.042c-3.593-2.827-2.988-5.475 5.357-23.421C332.607 175.391 336.383 169 338.513 169c.818 0 1.487-.378 1.487-.839 0-1.511 4.441-2.912 6.643-2.097 1.179.436 2.83 1.773 3.67 2.972 2.081 2.972.951 6.293-9.304 27.336-5.558 11.405-8.836 17.031-10.116 17.366-1.041.272-1.893.86-1.893 1.305 0 .446-.788 1.016-1.75 1.268-.962.251-.171.509 1.759.573 5.652.187 6.089 1.796 5.943 21.887-.071 9.719.249 17.796.71 17.949s.842-9.802.846-22.124c.007-20.612.16-22.572 1.91-24.506 1.047-1.156 2.093-1.912 2.326-1.679.232.232 1.285-.44 2.339-1.494 2.061-2.061 6.767-2.552 8.709-.909.655.555 1.007.742.781.415-.584-.845 1.473-6.423 2.369-6.423.411 0 2.01-1.086 3.555-2.413 1.544-1.327 4.764-2.96 7.155-3.63L370 192.74v-7.215c0-5.868.362-7.542 1.938-8.969 1.885-1.706 1.948-1.636 2.325 2.595l.388 4.349.174-4.55c.096-2.503.715-5.09 1.375-5.75 1.599-1.599 8.277-1.535 9.627.092.59.71 1.207 4.423 1.373 8.25.241 5.59.595 6.885 1.8 6.585.825-.204 3.812-.993 6.638-1.751 2.826-.759 6.262-1.473 7.636-1.587l2.499-.206-4.442-12.966c-5.742-16.764-10.42-26.344-20.079-41.117-27.168-41.55-68.973-71.9-115.834-84.091-6.179-1.608-10.107-3.103-9.734-3.707.354-.572.128-.704-.52-.304-.629.39-5.086.364-9.904-.056-7.052-.616-8.077-.893-5.26-1.422 3.781-.709-9.994-.931-15.5-.249m36.75 2.018c.962.252 2.538.252 3.5 0 .962-.251.175-.457-1.75-.457s-2.712.206-1.75.457M369 46.702c0 .454 1.8 1.938 4 3.298s4 2.816 4 3.236.477.764 1.059.764.844-.347.582-.771c-.885-1.433-9.641-7.36-9.641-6.527m11.069 7.949c.092 1.127 13.356 12.683 15.082 13.14.742.196.38-.464-.804-1.467s-4.897-4.231-8.25-7.173-6.066-4.967-6.028-4.5m-57.986 5.729c1.02.929 10.917 5.602 10.917 5.154 0-.564-9.55-5.534-10.633-5.534-.385 0-.513.171-.284.38m-106.86 6.177c-2.011 1.408-2.241 2.481-2.414 11.25l-.192 9.693-.558-9.362c-.532-8.916-.64-9.273-2.265-7.47-1.255 1.392-1.784 4.085-2 10.181l-.294 8.29-5.424 2.18c-4.216 1.695-5.461 2.691-5.586 4.466-.089 1.258-.66 2.785-1.27 3.395-.811.811-.948.498-.512-1.17.421-1.612.213-2.15-.715-1.841-.72.24-1.475 1.518-1.677 2.84s-.853 2.705-1.447 3.072c-.729.451-.521 1.52.641 3.293 2.011 3.07 5.117 3.375 11.49 1.126 2.338-.825 4.42-1.5 4.626-1.5 1.221 0 .163 12.392-1.241 14.535-.888 1.356-1.283 2.465-.878 2.465.406 0 .182.67-.498 1.489s-1.566 1.285-1.969 1.036c-1.079-.667-6.187 4.971-5.838 6.443.421 1.778-3.881 2.31-4.552.563-.301-.785-1.875-2.113-3.497-2.952-2.73-1.412-3.138-1.378-5.46.448-1.38 1.085-2.974 1.973-3.544 1.973-1.512 0-4.149 4.117-4.149 6.477 0 2.846 6.976 14.455 10.055 16.732 2.077 1.537 3.07 1.694 5.31.842 1.515-.576 2.477-1.498 2.136-2.049s.352-1.002 1.539-1.002c2.364 0 6.153-3.669 12.136-11.75 2.138-2.887 4.302-5.25 4.81-5.25s-.211 1.134-1.598 2.521c-2.14 2.14-2.45 3.196-2.053 7 .438 4.206.318 4.479-1.966 4.479-1.337 0-2.691.675-3.007 1.5s-1.151 1.5-1.854 1.5c-1.675 0-4.508 4.376-4.508 6.965 0 4.348 3.354 6.035 12 6.035 6.667 0 8.333-.333 10-2 1.1-1.1 2-1.697 2-1.326s1.125-.382 2.5-1.674c2.498-2.346 2.5-2.367 2.5-21.469v-19.119l4-4.29c2.2-2.359 4-5.172 4-6.251 0-2.274-4.241-6.871-6.338-6.871-.786 0-1.7-1.013-2.032-2.25-.844-3.151-.748-4.483.215-2.966.49.772 1.551 1.001 2.662.575 1.774-.681 1.771-.739-.08-1.464-1.612-.631-1.477-.766.823-.825 3.178-.081 6.75-3.221 6.75-5.935 0-3.247-3.854-7.135-7.073-7.135H226v-6.326c0-5.319-.368-6.671-2.314-8.5-2.733-2.567-5.402-2.761-8.463-.617M270 72.399c-15.372 3.174-20 4.723-20 6.695 0 .563-.399.777-.887.476-2.313-1.43-3.613 2.995-3.623 12.337-.006 5.276-.428 10.493-.938 11.593-.855 1.845-.776 1.887 1.011.547 1.065-.799.158.439-2.016 2.75-4.637 4.93-6.26 5.699-2.012.953 1.6-1.787.828-1.225-1.717 1.25s-4.372 4.95-4.062 5.5c.311.55.192.662-.265.248-1.244-1.129-4.491 2.257-4.491 4.684 0 3.408 2.802 6.57 5.807 6.553 2.465-.014 6.989-1.922 4.693-1.979-.55-.014 1.275-1.085 4.056-2.38 9.574-4.458 17.492-16.526 18.022-27.468.17-3.508.631-6.666 1.026-7.018.394-.352.351-.009-.097.762-.668 1.151-.048 1.28 3.459.719 3.279-.524 4.146-.385 3.732.598-2.749 6.524-11.871 29.497-12.014 30.257-.101.536-1.196 1.807-2.434 2.822s-2.295 3.052-2.35 4.525l-.099 2.677-.703-2.5-.704-2.5-1.736 2.634c-1.645 2.496-1.646 2.824-.012 6.25 1.241 2.603 2.367 3.616 4.019 3.616 2.94 0 10.461-2.987 9.881-3.925-.242-.392.913-.514 2.567-.272 1.912.281 2.829.906 2.518 1.715-.268.701-1.047 3.137-1.729 5.414l-1.24 4.141-8.58-.287-8.58-.286.333-3.829c.576-6.648-5.145-9.944-10.612-6.114-1.912 1.339-2.248 2.561-2.4 8.75l-.176 7.193-.574-7-.573-7-1.885 2.781c-1.623 2.394-1.788 3.853-1.187 10.491 1.044 11.52.481 11.228 21.645 11.228 9.77 0 18.588-.337 19.595-.75 1.008-.412-5.368-.992-14.168-1.289l-16-.538 17.233-.212 17.233-.211 2.434-4.803c3.656-7.214 9.6-24.947 9.6-28.639 0-4.167-2.65-6.558-7.27-6.558-1.986 0-3.882-.437-4.212-.971s1.49-6.272 4.046-12.75c10.119-25.652 11.08-30.014 7.213-32.722-2.775-1.944-2.177-1.997-20.777 1.842m130.134 1.015c2.401 2.428 4.534 4.247 4.74 4.043.547-.544-7.122-8.457-8.196-8.457-.501 0 1.055 1.986 3.456 4.414m5.877 4.963c-.015 1.192 12.263 15.47 13.376 15.555.488.038-1.095-2.07-3.516-4.682s-5.629-6.325-7.126-8.25-2.728-3.105-2.734-2.623M250.232 92c0 1.925.206 2.713.457 1.75.252-.963.252-2.537 0-3.5-.251-.963-.457-.175-.457 1.75M368 91.5c1.292 1.375 2.574 2.5 2.849 2.5s-.557-1.125-1.849-2.5-2.574-2.5-2.849-2.5.557 1.125 1.849 2.5m52.12 4.111c.894 2.092 6.45 9.316 7.192 9.351.879.041-5.188-8.768-6.67-9.683-.496-.307-.731-.157-.522.332M212.328 108.5c.005 3.85.185 5.302.402 3.228.216-2.075.213-5.225-.008-7s-.398-.078-.394 3.772M381 104.313c0 .172 1.462 1.635 3.25 3.25l3.25 2.937-2.937-3.25c-2.738-3.029-3.563-3.71-3.563-2.937M431.006 111c1.749 3.025 3.647 5.95 4.22 6.5 1.508 1.45-4.274-8.716-5.972-10.5-.785-.825.003.975 1.752 4m4.994 8.289c0 .533 3.604 7.18 5.808 10.711 3.424 5.485 2.566 2.75-1.4-4.466-3.077-5.598-4.408-7.484-4.408-6.245m8.022 15.461c.012.412.94 1.875 2.06 3.25l2.038 2.5-1.585-3.25c-1.507-3.088-2.561-4.137-2.513-2.5M212.32 143c0 3.575.182 5.037.403 3.25s.222-4.713 0-6.5c-.221-1.787-.403-.325-.403 3.25m235.722-.473c.023.535.938 2.548 2.034 4.473 1.488 2.613 1.823 2.866 1.324 1-.716-2.675-3.428-7.095-3.358-5.473m-35.84 6.951c1.196 2.463 2.347 4.307 2.556 4.097.453-.452-3.588-8.575-4.265-8.575-.257 0 .512 2.015 1.709 4.478m39.838 2.093c-.022.59.876 2.84 1.996 5 1.189 2.295 1.761 2.889 1.375 1.429-.824-3.121-3.317-7.875-3.371-6.429m-340.585 17.884c-1.35 1.35-2.455 2.18-2.455 1.845s-.86.168-1.91 1.119c-1.691 1.53-3.809 11.014-3.424 15.331.062.688-.851 1.25-2.027 1.251s-6.262 1.13-11.3 2.512l-9.161 2.511-3.012-3.012c-3.5-3.5-7.415-3.922-9.449-1.018-.768 1.096-1.621 1.768-1.896 1.494-.275-.275-1.274.355-2.22 1.4-1.876 2.074-5.119 22.912-4.16 26.733.294 1.169 1.96 2.717 3.704 3.439 2.821 1.169 3.567 1.084 6.763-.769 4.555-2.641 7.341-6.352 7.482-9.967.095-2.436.552-2.858 3.327-3.071 2.504-.192 3.09.086 2.643 1.25-.316.823-1.016 1.497-1.557 1.497-1.307 0-4.728 4.159-4.77 5.8-.018.714.654 2.627 1.493 4.25 1.31 2.534 2.12 2.961 5.75 3.029 2.323.043 3.549.326 2.724.627-.825.302-2.513 1.47-3.75 2.596-1.237 1.125-2.25 1.673-2.25 1.217s-.9-.014-2 .981c-2.375 2.149-2.617 6.741-.468 8.889.843.843 3.093 1.825 5 2.183l3.468.651v16.166c0 13.013.304 16.599 1.557 18.388C90.413 278 91.736 279 92.498 279c2.736 0 2.592 2.113-.426 6.217-3.576 4.862-4.027 9.609-1.16 12.203 2.255 2.041 7.745 1.821 7.297-.293-.182-.86.27-1.157 1.212-.796 1.637.628 6.827-4.864 11.36-12.021 2.98-4.707 4.317-5.277 12.41-5.296 7.905-.019 8.374-1.832.588-2.273l-6.279-.356 7.595-.192c9.063-.23 11.595-1.991 10.529-7.321-1.135-5.676-1.673-5.872-16.138-5.872h-13.269l-.664-2.645c-.866-3.449.416-4.596 4.57-4.088l3.377.413-3.75.16c-2.596.111-3.75.622-3.75 1.66 0 1.214 1.597 1.5 8.375 1.5 10.133 0 14.905-.829 14.271-2.48q-.465-1.209 1.945-.747c1.685.322 2.409.006 2.409-1.049 0-.831.675-1.769 1.5-2.086 1.974-.757 1.913-5.078-.115-8.173-1.597-2.438-1.581-2.465 1.5-2.465H139v39.835l5.721 6.619c5.984 6.923 8.939 8.504 12.593 6.738 1.503-.727 1.717-1.115.686-1.243-.825-.102-.166-.471 1.464-.821 3.552-.761 6.097-4.755 5.231-8.207-.337-1.342-2.276-4.236-4.31-6.43l-3.698-3.991-.306-17c-.168-9.35-.323-19.835-.343-23.301-.038-6.232-.076-6.317-3.506-7.75-6.553-2.738-28.41-1.508-31.028 1.746-.578.718-1.94 1.8-3.027 2.406-2.83 1.576-3.127 6.749-.536 9.34L120 243h-6.887c-6.863 0-6.887-.01-7.32-2.954-.351-2.392-.04-3.015 1.637-3.274 1.138-.176 1.975-.819 1.859-1.429s1.122-1.375 2.75-1.701c2.739-.548 2.961-.919 2.961-4.962 0-5.681-2.291-7.958-7.087-7.046l-3.413.65 2.5-1.931c6.993-5.402 7.207-5.447 10.598-2.211l3.098 2.956 15.402-2.63c18.228-3.113 19.163-3.37 16.402-4.505-1.655-.681-1.444-.835 1.227-.893 2.314-.05 3.703-.796 4.908-2.635 1.971-3.009 6.434-21.089 6.685-27.084.199-4.756-2.304-8.351-5.814-8.351-1.201 0-10.132 1.963-19.845 4.363L122 183.727v-6.291c0-5.605-.287-6.517-2.635-8.363-3.414-2.686-4.916-2.613-7.91.382m346.715-.955c-.016 1.1.357 2.9.83 4 1.095 2.548 1.095-.081 0-3.5-.644-2.01-.806-2.108-.83-.5m1.916 8c.104 1.894 1.77 5.084 1.828 3.5.031-.825-.381-2.175-.914-3s-.945-1.05-.914-.5m-275.173 5.431c-3.904.763-8 3.36-11.913 7.552l-2.5 2.678v89.708l3 3.195c1.65 1.758 4.8 3.988 7 4.955 4.555 2.004 14.957 3.71 12.5 2.051-1.06-.716-.326-.802 2.5-.292 2.2.397 22.304.722 44.676.722 45.755 0 42.433.533 49.266-7.906l3.058-3.777.5-42.659.5-42.658-2.825-4.256c-1.554-2.342-4.444-5.492-6.422-7l-3.596-2.744h-40.579c-43.122 0-48.13.439-52.881 4.632l-2.683 2.368 1.993-2.387c1.096-1.312 3.343-2.982 4.993-3.71l3-1.325-3 .076c-1.65.042-4.614.392-6.587.777m116.38 3.978c-1.215 1.014-1.903 2.147-1.531 2.52.372.372-.012.412-.855.089-.989-.38-2.017.319-2.903 1.974-2.16 4.037-.329 7.488 5.974 11.258 5.868 3.51 8.119 3.95 10.236 2 .747-.687 2.691-1.939 4.322-2.782 5.829-3.011 3.939-9.741-4.05-14.423-5.109-2.994-8.16-3.168-11.193-.636M464.218 194c-.01 1.375.342 3.625.782 5 .627 1.959.797 2.067.782.5-.01-1.1-.362-3.35-.782-5-.686-2.695-.765-2.746-.782-.5m-324.681 1.349c-3.327 1.003-4.073 1.729-4.644 4.52l-.68 3.326 4.643-.73c2.554-.402 5.187-.746 5.85-.765.663-.018 1.014-.344.779-.724s-.022-2.105.474-3.834c1.036-3.611.294-3.818-6.422-1.793m40.837 11.151c.002 6.05.167 8.396.366 5.213.199-3.182.197-8.132-.004-11-.201-2.867-.364-.263-.362 5.787M104 204.086c-5.775 1.594-8.949 2.669-7.053 2.391 12.106-1.777 14.069-1.772 16.07.038 1.141 1.033 1.983 3.074 1.983 4.807 0 4.708.668 2.788 1.417-4.072.527-4.831.387-6.228-.617-6.155-.715.052-6.025 1.398-11.8 2.991m362.118.997c.065 1.88.485 4.767.933 6.417.536 1.973.623.945.257-3-.615-6.613-1.376-8.798-1.19-3.417M365 210.186c-1.925.553-5.187.78-7.25.505l-3.75-.501v6.905c0 6.925.677 8.085 3.227 5.535 1.794-1.794 6.57-4.181 10.023-5.009 2.429-.582 2.75-1.124 2.75-4.64 0-2.19-.337-3.94-.75-3.891-.413.05-2.325.543-4.25 1.096M64.252 213.5c.011 2.2.216 2.982.455 1.738s.23-3.044-.02-4-.446.062-.435 2.262M340.43 233c0 12.925.143 18.213.317 11.75s.174-17.038 0-23.5c-.174-6.463-.317-1.175-.317 11.75m91.856-13.5c.008 2.75.202 3.756.432 2.236s.223-3.77-.014-5-.425.014-.418 2.764m-342.362 3.237c1.936.343 2.137.63 1 1.422-1.036.723-1.063.898-.099.642 2.168-.574 1.419-2.293-1.044-2.397-2.07-.088-2.057-.057.143.333m270.894 9.481c.533.533 1.805.793 2.826.576 1.375-.291 1.123-.543-.97-.969-1.825-.373-2.482-.233-1.856.393m-39.993 3.108c-.373 1.825-.233 2.482.393 1.856.533-.533.793-1.805.576-2.826-.291-1.375-.543-1.123-.969.97M354 240.413c0 7.274.097 7.605 1.944 6.617 1.07-.573 2.21-1.47 2.534-1.995.325-.525 3.05-1.73 6.056-2.677 5.403-1.703 5.466-1.769 5.466-5.657 0-3.779-.108-3.909-2.75-3.298-7.086 1.64-10.294 1.805-11.74.605-1.324-1.099-1.51-.31-1.51 6.405m79.252-1.913c.011 2.2.216 2.982.455 1.738s.23-3.044-.02-4-.446.062-.435 2.262m-253.102 4.625c-.083 1.444-.373 4.144-.647 6l-.496 3.375 1.053-3.356c.579-1.846.869-4.546.646-6l-.406-2.644zM92.385 261c0 6.875.16 9.688.355 6.25.196-3.437.196-9.062 0-12.5-.195-3.437-.355-.625-.355 6.25m339.915-7c0 3.025.187 4.262.416 2.75s.229-3.988 0-5.5-.416-.275-.416 2.75m-252.509 11c.262 6.875.641 12.688.843 12.917.701.797.246-17.443-.535-21.417-.464-2.364-.59 1.112-.308 8.5m93.481-4c0 2.475.195 3.488.434 2.25.238-1.238.238-3.262 0-4.5-.239-1.238-.434-.225-.434 2.25m157.923 3.5c.02 1.65.244 2.204.498 1.231s.237-2.323-.037-3-.481.119-.461 1.769m34.617 5.5c-.378 3.025-.93 7.075-1.225 9s.126 1.025.936-2 1.361-7.075 1.225-9c-.202-2.85-.376-2.479-.936 2M183 284.313c0 .172 1.463 1.635 3.25 3.25l3.25 2.937-2.937-3.25c-2.738-3.029-3.563-3.71-3.563-2.937m-33 4c0 .172 1.463 1.635 3.25 3.25l3.25 2.937-2.937-3.25c-2.738-3.029-3.563-3.71-3.563-2.937m308.624 14.226c-.343.893-.585 2.375-.538 3.293.047.917.482.341.967-1.282.943-3.156.609-4.718-.429-2.011m-251.058 8.388c-1.032 1.14-2.465 2.073-3.186 2.073-1.673 0-3.38 3.17-3.38 6.279 0 4.363 2.808 5.721 11.829 5.721H221v24.078l-2.189-2.039c-1.62-1.51-3.631-2.065-7.75-2.139-4.127-.074-4.916-.292-3.061-.847l2.5-.748-2.5-.516c-2.028-.419-1.83-.542 1.05-.653 4.469-.171 5.95-1.64 5.95-5.902 0-6.487-1.082-7.234-10.478-7.234-7.556 0-8.567.225-9.965 2.223-.856 1.222-1.557 1.827-1.557 1.345 0-.483-.877-.084-1.949.885-1.721 1.558-1.983 3.382-2.25 15.632-.253 11.654-.061 13.933 1.199 14.276.825.224.288.459-1.193.523-1.554.067-3.353 1.057-4.25 2.339-.856 1.222-1.567 1.784-1.579 1.25-.012-.535-.902.152-1.978 1.527-2.543 3.251-2.513 6.487.085 9.085 1.739 1.739 3.064 2.029 8.001 1.75 6.138-.347 6.957.055 4.414 2.165-1.754 1.456-2.041 3.452-.345 2.405.737-.456.882-.273.399.507-.415.672-1.013.962-1.33.645-.679-.679-5.224 3.389-5.224 4.676 0 .487.52.564 1.155.172.737-.456.882-.273.399.507-.415.672-1.01.965-1.323.652-.686-.686-4.231 2.372-4.231 3.65 0 .497.52.583 1.155.191.721-.446.882-.274.43.457-.398.644-1.106.934-1.574.645-1.229-.76-6.728 6.246-7.343 9.356-.657 3.323 1.465 6.703 4.722 7.52 3.985 1 8.497-2.856 22.56-19.286 16.197-18.924 17.05-20.143 17.05-24.386 0-4.443-3.199-6.711-9.465-6.711-5.175 0-6.206-1.453-1.285-1.811 1.787-.13 4.15-.554 5.25-.941 1.51-.531.898-.856-2.5-1.325l-4.5-.623 5.7-.15c4.28-.113 5.947-.586 6.687-1.9.696-1.234 1.079 2.304 1.3 12.002.274 12.052.116 13.751-1.282 13.75-2.387-.003-4.89 3.274-5.023 6.577l-.119 2.921-.645-3-.644-3-1.737 2.473c-.955 1.359-1.737 3.335-1.737 4.39 0 2.267 18.402 21.41 21.882 22.762 3.243 1.261 6.619.184 5.113-1.63-.881-1.063-.676-1.224.996-.787 2.931.766 7.009-3.243 7.009-6.891 0-1.786-1.11-3.997-3-5.974l-3-3.14v-41.66c0-34.371-.248-42-1.417-43.602-1.258-1.722-2.922-1.977-14.779-2.264-12.47-.302-13.486-.185-15.238 1.75m248.513.334c-.043.968-1.037 3.798-2.207 6.288-1.171 2.491-1.905 4.752-1.631 5.025.803.803 5.006-10.359 4.436-11.78-.33-.822-.548-.651-.598.467m-186.354 4.199c-1.527.796-3.431 2.103-4.232 2.904-.802.802-2.028 1.647-2.725 1.88-.863.287-1.378 3.306-1.613 9.459l-.344 9.037-3.756 1.125c-2.065.619-5.847 2.723-8.405 4.676-4.909 3.749-6.047 7.315-3.4 10.653 1.977 2.493 3.817 2.626 10.591.766l6.34-1.742-.71 7.141-.711 7.141 2.12-1.905c1.667-1.498 2.16-3.208 2.309-8l.189-6.095.365 5.889c.328 5.294.092 6.174-2.342 8.714-1.489 1.554-3.019 2.633-3.401 2.397-.924-.571-6.179 4.962-5.798 6.105.164.492-.082.964-.545 1.047-1.25.226-6.657 5.582-6.657 6.594 0 .48.52.551 1.155.159.721-.446.882-.274.43.457-.398.644-1.106.934-1.574.645-1.408-.871-5.011 4.561-5.011 7.555 0 3.725 4.223 7.177 7.314 5.978 1.202-.466 2.074-1.341 1.936-1.944s.634-1.096 1.715-1.096 3.47-1.321 5.309-2.935l3.343-2.936.225 3.817c.201 3.41-.152 4.039-3.308 5.902-2.632 1.552-3.559 2.795-3.634 4.868-.099 2.768-.103 2.769-.788.313l-.689-2.472-1.711 2.444c-2.217 3.165-2.159 4.161.435 7.458 2.088 2.655 2.382 2.72 10.829 2.385 7.639-.303 9.116-.674 12.277-3.086l3.594-2.743.326-19.437c.309-18.379.449-19.591 2.57-22.258 5.532-6.954 6.407-12.503 2.184-13.843-2.274-.722-6.103-5.383-5.381-6.551.285-.461 1.179-.585 1.986-.275s1.468.065 1.468-.544.635-1.107 1.411-1.107c1.505 0 6.589-5.498 6.589-7.124 0-2.007-5.364-5.876-8.146-5.876-2.843 0-2.854-.026-2.854-6.427 0-5.753-.277-6.645-2.635-8.5-3.128-2.461-3.102-2.458-6.64-.613m-4.524 12.707c-.135 5.836-.609 8.831-1.451 9.171-.979.395-.972.521.031.583 1.961.121 2.339-1.901 1.965-10.509l-.344-7.912zm147.943-5.417c-1.091 2.55-1.066 2.609.34.809.834-1.068 1.516-2.305 1.516-2.75 0-1.52-.678-.81-1.856 1.941m-197.894-.061c.963.252 2.537.252 3.5 0 .963-.251.175-.457-1.75-.457s-2.713.206-1.75.457m234.263 4.625c-2.142 5.127-1.797 5.893.603 1.342 1.116-2.115 1.777-4.096 1.469-4.404s-1.24 1.071-2.072 3.062M225.442 354c0 16.225.138 22.863.306 14.75s.168-21.388 0-29.5c-.168-8.113-.306-1.475-.306 14.75m220.093-17.413c-.932 1.422-1.467 2.814-1.189 3.093.279.278 1.226-.886 2.106-2.587 1.944-3.76 1.409-4.056-.917-.506m-5.712 10.562c-4.26 8.177-4.292 8.259-2.93 7.417 1.466-.906 7.405-12.601 6.738-13.268-.275-.275-1.989 2.358-3.808 5.851m-7.453 13.601c-1.493 2.613-3.175 5.425-3.737 6.25-.91 1.333-.853 1.333.513 0 1.761-1.719 7.193-11 6.438-11-.275 0-1.721 2.137-3.214 4.75m-50.917 8.5-3.953 4.25 4.25-3.953c3.952-3.676 4.71-4.547 3.953-4.547-.163 0-2.076 1.913-4.25 4.25m42.047 4.038c-3.388 4.757-4.171 6.245-2.858 5.433 1.482-.915 7.549-9.724 6.67-9.683-.447.021-2.162 1.933-3.812 4.25m-54.063 7.962-2.937 3.25 3.25-2.937c1.788-1.615 3.25-3.078 3.25-3.25 0-.773-.825-.092-3.563 2.937m42.676 6.347c-3.513 4.105-6.213 7.622-6 7.817s3.429-3.193 7.147-7.529 6.418-7.855 6-7.817c-.418.037-3.634 3.425-7.147 7.529M265.286 391.5c.008 2.75.202 3.756.432 2.236s.223-3.77-.014-5-.425.014-.418 2.764m-47.286 4c1.866 1.925 3.617 3.5 3.892 3.5s-1.026-1.575-2.892-3.5-3.617-3.5-3.892-3.5 1.026 1.575 2.892 3.5m180.56 6.75c-2.897 2.887-8.232 7.725-11.856 10.75s-6.615 5.865-6.646 6.312c-.067.943 10.634-8.222 19.338-16.562 3.3-3.163 5.647-5.75 5.216-5.75s-3.156 2.363-6.052 5.25M232 409.5c1.292 1.375 2.574 2.5 2.849 2.5s-.557-1.125-1.849-2.5-2.574-2.5-2.849-2.5.557 1.125 1.849 2.5m141.311 13.831c-2.304 1.743-4.216 3.534-4.25 3.981-.063.838 8.731-5.166 9.58-6.541.985-1.592-1.279-.505-5.33 2.56m-10.999 7.996c-6.878 4.207-8.138 5.71-1.812 2.161 4.411-2.475 8.755-5.624 7.464-5.411-.255.042-2.799 1.504-5.652 3.25m-104.062.362c.962.252 2.538.252 3.5 0 .962-.251.175-.457-1.75-.457s-2.712.206-1.75.457m94.583 5.061c-.183.413-2.934 2.049-6.112 3.638s-5.586 3.08-5.351 3.315c.581.582 12.325-5.4 13.116-6.681.348-.562.193-1.022-.344-1.022s-1.125.337-1.309.75M336 446.082l-2.5 2.038 3.25-1.585c1.788-.873 3.25-1.8 3.25-2.061 0-.994-1.593-.354-4 1.608m-8.778 3.579c-1.803.889-3.11 1.785-2.904 1.991.47.469 7.682-2.503 7.682-3.165 0-.838-1.386-.498-4.778 1.174M317 454.06c-1.925 1.014-3.148 1.866-2.718 1.892 1.225.075 7.718-2.786 7.718-3.401 0-.854-1.202-.492-5 1.509m-8 2.94c-1.828 1.181-.249 1.181 2.5 0 1.319-.567 1.489-.878.5-.914-.825-.031-2.175.381-3 .914m-7 2c-2.01.644-2.108.806-.5.83 1.1.016 2.9-.357 4-.83 2.548-1.095-.081-1.095-3.5 0m-7.5 2c-1.319.567-1.489.878-.5.914.825.031 2.175-.381 3-.914 1.828-1.181.249-1.181-2.5 0m-14.5 3.001c-2.475.404-7.848 1.255-11.94 1.89-6.885 1.069-10.325 2.109-6.977 2.109 2.43-.001 26.287-4.037 26.782-4.531.59-.591-2.094-.409-7.865.532"/><path fill="#ffe97b" fill-rule="evenodd" d="M229.495 5.449c-.685.997-5.258 1.931-14.695 2.999-14.566 1.65-22.428 3.35-27.3 5.907-3.419 1.793-14.526 5.449-19 6.254-3.657.658-36.627 17.591-41.5 21.313-1.925 1.471-4.85 3.521-6.5 4.557-13.922 8.734-41.591 36.184-53.485 53.061-19.354 27.462-30.536 52.128-38.515 84.96-4.398 18.099-5.596 29.07-5.698 52.17-.095 21.679 1.153 33.752 5.308 51.33 4.364 18.461 8.538 31.261 13.729 42.101 1.738 3.631 3.161 7.103 3.161 7.716 0 .612 2.895 5.967 6.433 11.898 5.919 9.922 9.729 15.666 21.278 32.076 5.666 8.051 24.146 27.223 32.789 34.015 3.85 3.026 7.675 6.28 8.5 7.23 4.06 4.677 46.394 27.91 56.133 30.807 1.852.551 7.099 2.355 11.659 4.009s11.536 3.737 15.5 4.628c3.965.892 10.133 2.457 13.708 3.479 5.118 1.462 11.121 1.956 28.233 2.325 11.953.258 21.506.103 21.23-.343-.631-1.022 7.864-2.35 10.546-1.649 1.097.287 1.759.142 1.473-.321-.558-.903 5.583-2.051 12.359-2.312 2.281-.087 4.15-.549 4.153-1.026.003-.476.884-.637 1.958-.356s2.117.017 2.318-.587c.201-.603 2.022-1.05 4.046-.992 2.024.057 3.463-.247 3.198-.675-.657-1.063 5.059-2.124 7.139-1.326 1.078.414 1.433.251.997-.455-.776-1.255 2.805-2.697 4.341-1.748.555.343 1.009.099 1.009-.542 0-.692.699-.898 1.72-.506.945.363 1.402.343 1.015-.045-1.146-1.145 3.986-3.287 6.377-2.661 1.397.365 1.964.192 1.553-.473-.743-1.201 5.883-4.664 7.277-3.803.506.313 2.159-.58 3.674-1.984s3.346-2.325 4.069-2.047c.723.277 1.315.124 1.315-.342 0-.465 2.587-2.138 5.75-3.718s6.011-3.226 6.33-3.657 1.405-.467 2.414-.08c1.201.461 1.603.329 1.164-.381-.864-1.397 5.92-5.634 7.478-4.671.692.427.907.294.524-.325-.616-.997 1.995-2.755 3.59-2.418.413.088.778-.404.812-1.091.102-2.054 8.695-7.78 10.587-7.055q1.683.648.965-.511c-.817-1.321 6.15-7.871 7.818-7.351.588.184.733-.001.324-.41-.82-.821 3.253-4.067 4.568-3.64.454.146.554-.172.222-.708-.592-.959 3.273-3.691 4.668-3.299.393.11.492-.379.221-1.086-.677-1.762 4.09-6.102 5.645-5.14.788.486.973.345.515-.395-.392-.635-.289-1.155.229-1.155.519 0 1.19-.945 1.492-2.101.311-1.189 1.023-1.807 1.641-1.425.601.371.969.216.818-.345-.453-1.68 9.594-13.064 11.086-12.563.891.299 1.159-.072.776-1.07-.669-1.743 5.19-10.339 7.113-10.434.687-.034 1.179-.4 1.091-.812-.337-1.595 1.421-4.206 2.418-3.59.619.383.752.168.325-.524-.963-1.558 3.274-8.342 4.671-7.478.678.418.858.08.482-.902-.652-1.699 5.806-14.756 7.299-14.756.495 0 .674-.592.397-1.315-.278-.723.643-2.554 2.047-4.069s2.306-3.153 2.004-3.641c-.911-1.475 2.35-8.196 3.602-7.422.757.468.922.048.502-1.276-.716-2.256 1.692-7.624 2.921-6.512.446.404.531.243.189-.359-.768-1.348 1.088-8.406 2.21-8.406.448 0 .613-1.054.367-2.342-.255-1.335.234-3.024 1.139-3.929.872-.872 1.586-3.193 1.586-5.158 0-1.964.408-3.571.906-3.571s.671-.9.384-2c-.306-1.168-.031-2 .661-2 .727 0 .94-.768.552-1.991-.348-1.095-.303-2.523.099-3.173.402-.651.819-2.342.928-3.759.603-7.844 1.865-15.077 2.632-15.077.482 0 .577-1.192.211-2.649-.476-1.899-.332-2.444.51-1.923.889.549 1.148-5.139 1.062-23.358-.063-13.246-.493-23.849-.956-23.563-1.037.641-2.458-9.939-1.536-11.431.366-.592.136-1.076-.511-1.076-.71 0-.989-.976-.703-2.47.289-1.511.08-2.227-.54-1.844-.649.401-.799-.683-.418-3.031.366-2.254.193-3.655-.452-3.655-.616 0-.788-1.027-.418-2.5.393-1.567.203-2.5-.509-2.5-.634 0-.91-.862-.625-1.952.281-1.074.017-2.117-.587-2.318-.603-.201-1.05-2.022-.992-4.046.057-2.024-.265-3.452-.716-3.173-.924.571-2.475-5.351-1.625-6.202.301-.301-.141-1.236-.982-2.077-.842-.842-1.312-2.363-1.046-3.381s.028-1.851-.53-1.851c-.557 0-.716-.774-.353-1.72.363-.945.343-1.402-.045-1.015-1.131 1.132-3.5-4.377-2.813-6.542.358-1.129.223-1.724-.316-1.391-1.098.679-4.562-6.053-3.772-7.332.293-.474-.616-2.101-2.02-3.616s-2.325-3.346-2.047-4.069c.277-.723.099-1.315-.397-1.315-.926 0-2.589-3.908-2.234-5.25.109-.413-.364-.638-1.052-.5-.713.143-1.218-.695-1.176-1.95.041-1.218-.37-1.926-.92-1.586-.586.362-.734-.064-.36-1.038.391-1.019.169-1.561-.58-1.414-.723.142-1.113-.696-.965-2.07.136-1.27-.163-2.054-.665-1.744-1.274.787-5.388-6.147-4.5-7.584.427-.692.294-.907-.325-.524-.997.616-2.755-1.995-2.418-3.59.088-.412-.403-.778-1.091-.812-2.054-.102-7.78-8.695-7.055-10.587.431-1.123.262-1.442-.511-.965-1.321.817-7.871-6.15-7.351-7.818.184-.588-.001-.733-.41-.324-.821.82-4.067-3.253-3.64-4.568.146-.454-.225-.521-.826-.15-.617.382-1.329-.233-1.638-1.414-.301-1.149-1.022-1.796-1.603-1.437-.651.403-.818.034-.437-.96.401-1.046.181-1.445-.628-1.135-1.606.617-6.069-4.095-5.204-5.495.415-.671.025-.82-1.059-.404-1.079.415-1.474.267-1.063-.397.359-.581-.288-1.302-1.437-1.603-1.328-.347-1.814-.991-1.334-1.768.475-.769.339-.965-.367-.529-1.461.903-13.134-9.47-12.603-11.199.28-.912-.208-1.122-1.59-.683-1.097.348-1.994.259-1.994-.199 0-.457-1.8-1.943-4-3.303s-4-3.027-4-3.705-.616-.996-1.369-.707c-.823.316-1.593-.334-1.932-1.632-.312-1.191-1.042-1.862-1.63-1.499-1.413.874-7.069-2.518-7.069-4.24 0-.897-.673-1.138-2-.717-1.1.349-2 .203-2-.324 0-.528-1.143-1.246-2.541-1.597s-2.297-1.032-1.999-1.515-.245-.678-1.209-.435c-.984.249-2.961-.69-4.513-2.145-1.519-1.423-3.152-2.346-3.629-2.051s-1.992-.589-3.367-1.964c-1.542-1.542-3.117-2.262-4.112-1.88-.985.378-1.852-.004-2.226-.98-.338-.878-1.085-1.306-1.66-.95-.576.355-1.633-.154-2.348-1.132-.726-.993-1.969-1.521-2.817-1.196-1.862.715-6.833-1.714-5.814-2.84.404-.446.243-.531-.359-.189-1.728.984-8.563-1.239-7.768-2.526.45-.727.106-.892-.985-.473-2.185.838-7.78-.288-7.078-1.425.493-.797-3.219-1.356-6.325-.953-.687.09-1.25-.265-1.25-.788 0-.522-.9-.714-2-.427-1.1.288-2 .083-2-.455s-1.125-.763-2.5-.5-2.5.085-2.5-.396c0-.48-1.969-.717-4.376-.525-2.788.221-4.834-.144-5.64-1.006-.781-.836-2.741-1.213-5.124-.986-2.123.202-3.86-.067-3.86-.598 0-.532-1.192-.739-2.649-.46-1.924.368-2.441.17-1.889-.723.59-.953-2.067-1.154-11.853-.895-6.936.184-12.611-.004-12.61-.416.002-1.367-5.491-.777-6.504.699M224.5 40.671c-24.444 3.028-32.775 4.728-48.401 9.879-25.264 8.328-39.308 15.905-63.735 34.387-9.432 7.136-23.499 21.624-31.146 32.077-1.805 2.467-4.767 6.511-6.581 8.986-14.345 19.571-26.639 50.1-31.141 77.333-1.955 11.824-2.481 18.823-2.595 34.5-.143 19.711.322 24.502 4.089 42.167 7.138 33.471 28.971 73.897 51.484 95.333 23.195 22.083 51.74 39.6 77.026 47.267 3.3 1.001 6.471 2.154 7.046 2.563 1.673 1.189 24.955 5.624 36.954 7.039 12.471 1.472 25.202 1.409 40.5-.2 46.753-4.915 88.34-25.492 121.523-60.128 14.298-14.925 23.718-28.342 33.424-47.608 22.888-45.43 26.703-99.868 10.503-149.85-6.223-19.199-19.504-43.451-32.81-59.916-24.555-30.382-59.337-54.127-95.221-65.004-22.558-6.837-54.687-10.835-70.919-8.825m-9.277 25.886C213.196 67.976 213 68.936 213 77.434c0 10.37-.088 10.527-7 12.501-6.061 1.73-10.192 3.945-9.486 5.087.318.515.076 1.876-.539 3.024-.874 1.634-.77 2.618.477 4.521 1.859 2.837 4.966 3.121 10.202.933 5.944-2.483 6.346-2.194 6.346 4.563v6.064l-9.23 10.42c-9.176 10.359-9.239 10.406-10.526 7.949-.712-1.359-2.648-3.171-4.303-4.027-2.922-1.511-3.096-1.468-6.044 1.481-3.599 3.598-3.448 4.568 2.222 14.263 4.55 7.78 6.031 8.885 10.297 7.685 3.164-.89 4.819-2.54 11.688-11.648 2.177-2.887 4.395-5.25 4.928-5.25.532 0 .968 3.15.968 7v7h-4.474c-3.944 0-4.656.35-6 2.95-2.072 4.007-1.93 5.322.861 7.944 2.102 1.975 3.329 2.22 10.25 2.048 6.35-.157 8.296-.588 10.113-2.242 2.183-1.988 2.25-2.614 2.25-21.169v-19.119l4-4.29c2.2-2.359 4-5.172 4-6.251 0-2.278-4.242-6.871-6.346-6.871-.791 0-1.737-1.195-2.104-2.655-.742-2.959.563-4.305 4.2-4.33 2.735-.018 6.25-3.325 6.25-5.88 0-3.247-3.854-7.135-7.073-7.135H226v-6.326c0-5.319-.368-6.671-2.314-8.5-2.733-2.567-5.402-2.761-8.463-.617M270 72.399c-15.637 3.228-19.357 4.483-20.258 6.831-.271.707-.073 4.062.441 7.455 1.442 9.531-.019 13.337-8.269 21.538-3.802 3.78-6.914 7.28-6.914 7.778s.527 2.062 1.171 3.476c3.661 8.034 17.347.258 24.568-13.959 1.761-3.469 2.621-6.961 2.83-11.5l.3-6.518 5.607-1.375c3.084-.756 5.823-1.159 6.087-.895.843.843-12.968 34.77-14.154 34.77-.627 0-2.325.933-3.774 2.073-3.032 2.385-3.467 6.295-1.078 9.704 1.925 2.749 4.377 2.807 9.443.223 2.156-1.1 5.226-2 6.822-2h2.902l-2.507 7.033-2.507 7.034-10.103-.284-10.104-.283.332-3.829c.576-6.648-5.145-9.944-10.612-6.114-2.008 1.406-2.223 2.399-2.223 10.277 0 13.654-.817 13.166 22.04 13.166h18.926l2.434-4.803c3.656-7.214 9.6-24.947 9.6-28.639 0-4.167-2.65-6.558-7.27-6.558-1.986 0-3.882-.437-4.212-.971s1.49-6.272 4.046-12.75c10.119-25.652 11.08-30.014 7.213-32.722-2.775-1.944-2.177-1.997-20.777 1.842m72.275 93.891c-2.32 1.036-12.192 19.537-18.201 34.111-3.617 8.773-3.3 12.002 1.29 13.154 6.113 1.535 6.637.959 15.509-17.055 4.606-9.35 8.965-18.888 9.686-21.196 1.187-3.793 1.129-4.431-.599-6.628-2.312-2.939-4.748-3.696-7.685-2.386m-230.355 2.574c-1.861 1.507-2.508 3.471-3.375 10.25l-1.073 8.386-3.986.875c-2.192.481-8.11 1.948-13.151 3.258l-9.165 2.383-3.008-3.008c-3.642-3.642-7.519-3.95-9.542-.758-1.499 2.366-3.642 16.196-3.589 23.159.057 7.307 7.101 10.005 11.319 4.335 1.138-1.53 2.05-4.291 2.05-6.206v-3.449l20.897-5.044c11.494-2.773 21.257-4.821 21.696-4.549s.406 2.183-.073 4.249c-1.556 6.7-1.12 10.718 1.421 13.106l2.341 2.199 16.296-2.775c14.299-2.435 16.481-3.059 17.816-5.09 1.843-2.805 6.284-21.068 6.526-26.834.199-4.756-2.304-8.351-5.814-8.351-1.201 0-10.132 1.963-19.845 4.363L122 183.727v-6.291c0-5.605-.287-6.517-2.635-8.363-3.246-2.554-4.506-2.589-7.445-.209m264.293 4.386c-.567.688-1.355 5.412-1.751 10.5-.702 9.013-.784 9.25-3.225 9.25-3.859 0-9.96 2.093-12.209 4.189-2.622 2.442-2.585 6.254.086 8.925 1.8 1.8 2.841 2.017 7.012 1.464 2.694-.358 5.568-.907 6.386-1.221 1.206-.463 1.488.468 1.488 4.9v5.471l-4.517.619c-4.692.643-10.445 3.119-11.718 5.043-1.382 2.088-.766 5.609 1.351 7.726 2.149 2.149 3.898 2.189 12.191.276l2.806-.647-.306 5.354-.307 5.354-4.348.738c-7.124 1.209-11.602 3.873-11.975 7.124-.457 3.989 2.237 7.685 5.601 7.685 1.503 0 11.055-2.188 21.227-4.862s19.748-5.162 21.279-5.528c5.375-1.285 6.156-8.781 1.249-11.997-2.323-1.522-2.979-1.496-9.742.378-3.988 1.105-7.71 2.009-8.271 2.008-1.059-.001-1.386-8.466-.366-9.486.319-.319 4.802-1.734 9.963-3.144 5.161-1.409 9.968-3.043 10.684-3.63 2.169-1.781 1.044-7.784-1.864-9.945-2.522-1.875-2.675-1.874-9.736.083-3.945 1.093-7.63 2.27-8.187 2.614-.614.38-1.073-.975-1.164-3.432-.083-2.232-.195-4.594-.25-5.248-.056-.665 3.639-2.247 8.4-3.596 4.675-1.324 9.5-2.798 10.722-3.277 4.235-1.658 3.954-9.477-.422-11.749-1.602-.831-5.694-.141-17.3 2.916-1.208.318-1.559-.961-1.8-6.563-.166-3.827-.783-7.54-1.373-8.25-1.371-1.653-8.26-1.683-9.614-.042M196.5 182.19c-6.508 1.579-8.827 3.106-12.09 7.96-3.082 4.585-3.092 4.648-3.698 21.974-.806 23.053.002 64.48 1.337 68.523 1.435 4.348 7.968 10.057 12.641 11.046 2.096.444 22.339.807 44.986.807 46.321 0 42.929.539 49.766-7.906l3.058-3.777.5-42.659.5-42.658-2.825-4.256c-1.554-2.342-4.444-5.492-6.421-7l-3.596-2.744-40.079-.14c-23.02-.08-41.782.273-44.079.83m104.573 4.445c-2.656 3.376-2.608 4.576.323 8.059 2.426 2.883 10.139 7.306 12.741 7.306 2.645 0 5.863-3.069 5.863-5.592 0-3.596-2.564-6.963-7.514-9.863-5.599-3.281-8.781-3.256-11.413.09m-158.823 5.73c-4.537 1.11-8.25 2.382-8.25 2.826 0 .445.403.809.895.809.511 0 .546 1.544.082 3.601l-.812 3.601 4.667-.713c2.568-.392 5.343-.853 6.168-1.024s1.985-.346 2.578-.388c.922-.066 3.94-10.055 3.189-10.553-.147-.098-3.98.731-8.517 1.841m65 9.341c-1.238.238-2.25 1.077-2.25 1.864 0 .786-.647 1.43-1.439 1.43-2.283 0-2.71 6.326-2.373 35.138l.312 26.638 2.862 2.862 2.862 2.862 26.638.312c29.231.342 35.138-.075 35.138-2.48 0-.963.565-1.329 1.5-.97 1.084.415 1.5-.11 1.5-1.893 0-1.358.345-2.469.766-2.469s.759-12.599.75-27.998-.353-27.999-.766-28-.75-1.113-.75-2.471c0-1.783-.416-2.308-1.5-1.893-.917.352-1.5 0-1.5-.906 0-.86-1.312-1.744-3.125-2.107-3.433-.687-55.01-.615-58.625.081M95.5 207.054c-4.95 1.052-9.345 1.92-9.766 1.929-.422.009-1.519 1.596-2.439 3.525-1.603 3.36-1.587 3.624.368 6.25 1.228 1.65 3.31 2.941 5.228 3.242 3.896.611 4.065 2.195.359 3.377-3.59 1.145-7.25 4.521-7.25 6.687 0 3.04 3.38 6.119 7.04 6.413 3.428.276 3.46.323 3.506 5.151.026 2.679.138 10.632.25 17.673L93 274.102l3.514 1.468 3.513 1.468-3.513 5.218c-5.103 7.577-4.337 12.411 2.219 14.005 2.603.633 6.279-3.114 12.493-12.737 2.14-3.313 4.652-6.33 5.582-6.704.931-.374 4.885-.711 8.787-.75 8.529-.084 11.085-1.919 10.029-7.198-1.135-5.676-1.673-5.872-16.138-5.872h-13.269l-.639-2.546c-.352-1.4-.383-2.96-.071-3.465.325-.527 6.321-.705 14.031-.418 11.238.419 13.462.266 13.462-.928 0-.786.675-1.688 1.5-2.005 1.974-.757 1.913-5.078-.115-8.173-1.583-2.417-1.877-2.465-15-2.465-12.076 0-13.386-.171-13.399-1.75-.007-.963-.285-2.762-.616-4-.41-1.529-.165-2.252.763-2.256.752-.003 3.055-.474 5.117-1.047 3.59-.997 3.75-1.224 3.75-5.339 0-5.502-2.336-7.891-6.837-6.991-2.757.552-3.163.36-3.163-1.492 0-1.657.612-2.125 2.777-2.125 4.321 0 7.223-2.572 7.223-6.402 0-6.831-4.17-7.803-19.5-4.544M343 207c-1.891 1.891-2 3.333-2 26.519v24.519l-2.75-.66c-1.512-.362-2.902-.785-3.087-.939s-.28-8.168-.21-17.809c.148-20.306-.242-21.63-6.362-21.63-8.675 0-22.188 3.087-23.826 5.443-1.444 2.077-.766 7.246 1.182 9.009 1.65 1.494 3.02 1.654 9 1.053l7.053-.708v2.633c0 1.448-.562 2.782-1.25 2.965s-3.5.857-6.25 1.498c-5.691 1.327-8.5 4.034-8.5 8.192 0 2.169.726 3.239 2.991 4.411 2.764 1.428 4.511 1.402 10.259-.156 1.426-.387 1.75.179 1.75 3.058 0 3.268-.518 3.871-6.929 8.056-3.811 2.487-7.216 5.428-7.567 6.534-1.49 4.695 2.443 8.744 7.308 7.523 1.445-.363 5.211-2.254 8.369-4.204l5.743-3.544 18.288 3.194c10.058 1.758 25.696 4.487 34.751 6.065 10.956 1.909 16.858 2.542 17.642 1.891.649-.539 1.738-2.326 2.419-3.972 1.078-2.6.994-3.265-.642-5.081-1.035-1.149-2.891-2.476-4.125-2.947-1.829-.7-24.875-5.108-39.007-7.462l-3.25-.542v-25.232c0-21.218-.248-25.586-1.557-27.454-1.981-2.829-6.725-2.941-9.443-.223m-216.951 20.017c-6.102 1.437-7.966 6.833-3.735 10.809 2.03 1.906 3.446 2.174 11.5 2.174H143v38.82l3.873 4.84c6.445 8.053 9.552 10.535 12.731 10.167 3.422-.395 5.979-4.367 5.091-7.906-.337-1.342-2.276-4.236-4.31-6.43l-3.698-3.991-.306-17c-.168-9.35-.323-19.835-.343-23.301-.038-6.232-.076-6.317-3.506-7.75-3.794-1.585-20.431-1.857-26.483-.432m81.194 84.224c-2.777 2.956-2.865 6.137-.243 8.759 1.662 1.662 3.333 2 9.883 2 7.33 0 7.926.158 8.487 2.25.331 1.238.609 14.983.616 30.545l.014 28.296-3.54-.664c-4.534-.851-7.46 1.531-7.46 6.074 0 2.701 1.538 4.746 10.03 13.333 11.146 11.271 13.774 12.638 17.525 9.114 3.385-3.179 3.184-7.193-.555-11.105l-3-3.14v-41.66c0-34.371-.248-42-1.417-43.602-1.258-1.722-2.922-1.977-14.757-2.264-12.969-.314-13.403-.256-15.583 2.064m62.041 4.39-3.216 1.586-.284 9.948-.284 9.948-6.717 2.259c-3.694 1.242-7.632 3.086-8.75 4.098-2.859 2.588-2.619 6.924.521 9.393 2.682 2.11 2.763 2.102 13.196-1.27 2.181-.705 2.25-.523 2.25 5.928v6.655l-8.456 9.124c-4.652 5.018-9.26 10.614-10.241 12.437-1.623 3.013-1.647 3.561-.263 6.038 1.101 1.971 2.453 2.815 4.884 3.049 2.978.287 3.973-.333 8.719-5.432l5.357-5.757V398h-3.277c-4.791 0-7.723 2.431-7.723 6.402 0 5.334 2.332 6.598 12.174 6.598 12.032 0 11.597.823 11.998-22.68.31-18.11.453-19.336 2.571-22 5.532-6.954 6.407-12.503 2.184-13.843-2.241-.711-6.107-5.376-5.402-6.518.274-.443 1.831-1.098 3.459-1.456 2.82-.619 8.016-5.564 8.016-7.627 0-2.007-5.364-5.876-8.146-5.876-2.843 0-2.854-.026-2.854-6.427 0-5.753-.277-6.645-2.635-8.5-3.128-2.461-3.001-2.453-7.081-.442m-74.727 15.592c-1.244 1.776-1.557 5.291-1.557 17.5V364h-3.443c-6.327 0-8.792 7.097-3.822 11.006 2.182 1.717 3.8 2.085 8.002 1.823 2.896-.181 5.265-.031 5.264.333s-4.118 5.7-9.15 11.858c-8.712 10.66-10.487 14.127-9.28 18.122.648 2.149 5.841 4.292 7.752 3.199 1.537-.88 25.967-29.13 29.589-34.218 1.156-1.623 2.088-4.486 2.088-6.412 0-4.443-3.199-6.711-9.465-6.711-3.783 0-4.535-.314-4.535-1.893 0-2.382 1.877-3.107 8.047-3.107 5.315 0 6.953-1.506 6.953-6.395 0-4.169-3.574-6.605-9.689-6.605-4.054 0-5.311-.355-5.311-1.5 0-1.03 1.033-1.5 3.3-1.5 4.189 0 5.7-1.528 5.7-5.766 0-6.487-1.082-7.234-10.478-7.234-7.556 0-8.567.225-9.965 2.223"/><path fill="#cc7716" fill-rule="evenodd" d="M246.5 42.435c34.332 4.728 70.109 21.826 100.945 48.242 15.466 13.249 36.19 40.501 45.545 59.89 2.141 4.437 5.785 13.662 8.099 20.5s5.219 13.558 6.455 14.933c1.944 2.163 2.243 3.589 2.22 10.586-.015 4.448.457 9.623 1.048 11.5 1.366 4.336 1.839 30.707.917 51.156l-.709 15.741-6.039 17.759c-12.056 35.448-25.272 57.341-50.635 83.874-15.042 15.736-43.02 33.94-67.311 43.796-7.438 3.017-30.389 9.604-37.035 10.628l-4.5.693 4.199.133c12.735.406 42.456-5.964 59.548-12.762 44.297-17.617 81.853-52.148 102.893-94.604 20.682-41.735 25.957-87.237 15.419-133-4.937-21.435-17.61-49.791-29.798-66.673C374.447 92.534 344.225 68.661 309 54.714c-14.085-5.577-43.593-12.551-53-12.526-.825.002-5.55-.251-10.5-.563l-9-.567zm-36.845 28.394c-1.252 1.384-1.655 3.793-1.655 9.906 0 7.585.122 8.046 2 7.555 1.821-.476 2-1.364 2-9.907 0-5.16-.155-9.383-.345-9.383s-1.09.823-2 1.829m37.054 9.938c-1.504 1.664-1.684 3.025-1.121 8.514.921 8.988-.075 13.119-4.346 18.029l-3.644 4.19 4.815-4.5c2.649-2.475 5.439-5.948 6.201-7.718 1.475-3.425 1.715-10.309.578-16.639-.68-3.789-.724-3.822-2.483-1.876m23.118 5.602c-6.185 1.497-7.589 3.103-1.958 2.239 3.352-.514 4.245-.372 3.837.611-6.569 15.821-12.322 30.778-11.835 30.766 1.82-.045 3.226-2.653 8.081-14.985 2.923-7.425 5.929-14.807 6.681-16.404 1.979-4.202 2.45-3.984-4.806-2.227m-76.901 9.881c-.041.138-.278 1.355-.526 2.707s-.937 2.757-1.531 3.124c-.729.451-.521 1.52.641 3.293 2.011 3.07 5.117 3.375 11.49 1.126 2.338-.825 4.42-1.5 4.626-1.5s.374 2.865.374 6.366v6.366l-6.982 7.818c-3.84 4.301-6.8 8.001-6.578 8.224.223.222 2.127-1.543 4.232-3.923a630 630 0 0 1 8.578-9.436c4.667-5.02 4.75-5.223 4.75-11.686v-6.578l-5.454 1.917c-3.978 1.398-6.12 1.664-7.915.982-2.532-.963-4.208-4.217-3.76-7.3.14-.963-.224-1.75-.808-1.75s-1.096.112-1.137.25M226 97c0 1.253 1.061 1.253 3 0 1.213-.784 1.069-.972-.75-.985-1.238-.008-2.25.435-2.25.985m7.687 17.805c-3.055 3.189-3.379 5.762-1.13 8.972 1.633 2.332 5.745 2.95 8.409 1.265 1.179-.746.944-1.126-1.202-1.942-1.468-.558-3.342-2.316-4.165-3.908-1.329-2.571-1.328-3.133.009-5.043 2.073-2.959 1.285-2.691-1.921.656m17.955 12.339c-1.627 2.482-1.627 2.82.004 6.24 2.042 4.281 4.516 4.633 11.213 1.594 3.9-1.77 8.141-2.605 8.141-1.604 0 .206-.675 2.288-1.5 4.626-1.838 5.209-1.862 6-.183 6 .727 0 2.129-2.576 3.129-5.75.996-3.162 2.02-6.296 2.276-6.964.69-1.803-4.641-.878-9.642 1.673-6.129 3.127-9.041 1.573-11.037-5.891l-.682-2.549zm-74.085 6.079c-2.332 3.328-1.931 5.646 2.193 12.691 4.901 8.371 7.817 10.599 11.805 9.016 2.044-.811 2.486-1.325 1.445-1.68-2.782-.948-5.179-3.707-9.197-10.588-2.663-4.559-3.847-7.653-3.54-9.255.576-3.013-.666-3.098-2.706-.184m31.926 5.162c-1.989 3.037-1.464 9.854.785 10.184 1.259.185 1.636-1.036 1.901-6.171.356-6.886-.23-7.761-2.686-4.013m25.123-.104c-1.612 2.389-1.778 3.865-1.178 10.491 1.046 11.543.435 11.231 21.977 11.213 23.706-.02 26.666-1.698 3.789-2.148-21.3-.419-21.007-.24-22.025-13.437l-.686-8.9zm-35.991 16.184c-2.162 3.3-2.035 6.115.385 8.535 1.659 1.659 3.333 2 9.809 2 5.318 0 8.428-.468 9.75-1.468 1.761-1.332 1.223-1.471-5.809-1.5-6.513-.027-8.085-.367-9.849-2.131-1.461-1.461-1.97-2.98-1.673-5 .521-3.551-.465-3.715-2.613-.436m135.711 18.785c-3.691 5.81-16.2 32.872-16.966 36.701-1.073 5.364 2.982 8.136 9.39 6.419 2.955-.792 2.892-2.37-.095-2.37-3.5 0-6.042-3.315-5.318-6.936.69-3.449 10.397-25.059 14.74-32.814 3.51-6.267 2.104-7.07-1.751-1m-227.549-.5c-.843.963-1.838 4-2.212 6.75-.373 2.75-.909 5.787-1.189 6.75-.775 2.657 2.51 2.189 3.509-.5.929-2.503 2.44-14.75 1.82-14.75-.217 0-1.085.787-1.928 1.75m264.973 3.968c-1.324 1.467-1.75 3.686-1.75 9.111 0 3.944.337 7.164.75 7.156 2.729-.056 3.324-1.997 3.043-9.931-.282-7.962-.359-8.202-2.043-6.336m-186.837 5.213c-3.904.763-8 3.36-11.913 7.552l-2.5 2.678v89.708l3 3.195c3.661 3.9 9.346 6.508 16 7.339l5 .626-3-1.636c-4.855-2.648-7.641-5.602-9.787-10.38-1.922-4.277-2.008-6.339-1.85-44.222.091-21.855.564-40.761 1.052-42.013 1.709-4.394 7.234-10.938 10.394-12.312l3.191-1.388-3 .076c-1.65.042-4.614.392-6.587.777m112.126 7.258c-4.152 4.456-1.658 9.414 6.942 13.802 2.653 1.353 5.146 1.943 6.635 1.569 3.37-.845 2.965-1.77-1.766-4.038-6.677-3.201-10.154-6.999-9.636-10.528.525-3.578.438-3.61-2.175-.805m-232.438 3.699c-1.876 2.074-5.119 22.912-4.16 26.733.795 3.167 5.915 5.01 9.354 3.367 2.657-1.27 2.666-1.304.477-1.89-3.408-.915-6.276-3.827-6.24-6.338.017-1.243.662-6.977 1.434-12.743.771-5.765 1.279-10.606 1.128-10.756-.15-.15-1.047.582-1.993 1.627m77.719-.041c-3.399.909-6.549 2.055-7 2.547-.769.837.467.693 8.644-1.012 2.951-.615 2.96-.603 2 2.744-1.222 4.26-1.255 4.078.677 3.697 1.915-.377 4.805-9.89 2.954-9.726-.602.053-3.876.84-7.275 1.75m-43.238 10.658c-11.78 2.843-20.943 5.463-20.363 5.821.579.358 9.27-1.379 19.311-3.86 10.041-2.482 18.443-4.327 18.67-4.099s-.019 3.5-.546 7.273c-.937 6.702-.896 6.925 1.766 9.663l2.725 2.804 15.428-2.635c16.964-2.897 19.157-3.433 17.125-4.189-.715-.266-6.902.51-13.747 1.726-13.723 2.436-16.415 2.222-18.856-1.505-1.431-2.183-1.499-3.392-.511-9.066.627-3.601.977-6.672.778-6.825s-10 2.048-21.78 4.892m297.249-3.148c-6.378 1.91-10.114 3.643-7.855 3.643 1.772 0 15.085-4.245 15.974-5.093 1.308-1.249.275-1.064-8.119 1.45m-41.031-.563c-3.891 2.473-2.939 9.757 1.419 10.85 2.357.592 8.647-.08 11.694-1.249 1.295-.497 1.587.167 1.587 3.605 0 3.432.294 4.101 1.582 3.607.87-.334 1.77-.607 2-.607s.418-2.025.418-4.5c0-5.059-.302-5.188-8-3.414-4.341 1-4.599.927-7.296-2.092-1.884-2.108-2.596-3.759-2.183-5.061.677-2.132.541-2.259-1.221-1.139m-16.875 10.289c-1.726 1.907-1.887 3.953-1.905 24.25-.019 21.413.048 22.177 1.98 22.453 1.953.28 2-.285 2-24.25 0-13.495-.043-24.537-.095-24.536s-.943.937-1.98 2.083M79.75 214.47c-2.14 2.943-2.166 3.825-.224 7.58 1.326 2.565 2.076 2.948 5.75 2.935 2.323-.009 4.899-.452 5.724-.985 1.165-.753.876-.973-1.298-.985-3.884-.021-7.995-4.569-7.455-8.247.496-3.38-.196-3.462-2.497-.298m25.888 5.03c-.316.825-.194 1.5.271 1.5s1.406-.675 2.091-1.5c1.013-1.221.963-1.5-.271-1.5-.833 0-1.774.675-2.091 1.5M396 224.259c-8.001 2.222-8.604 2.47-7.847 3.227.658.658 15.103-3.375 16.297-4.551 1.291-1.271.384-1.129-8.45 1.324m-94.138-.241c-3.368 1.966-3.046 8.701.538 11.271.605.434 4.363.508 8.351.165 6.536-.563 7.188-.458 6.604 1.062-.482 1.258-.183 1.597 1.177 1.335 1.668-.321 4.161-5.859 2.632-5.845-.365.003-3.269.432-6.453.954-3.183.521-6.462.689-7.286.373-2.173-.834-4.631-6.107-3.909-8.383.701-2.208.613-2.257-1.654-.932m53.388-.276c-1.811.615-1.606 8.718.26 10.266 1.446 1.2 4.654 1.035 11.74-.605 2.65-.613 2.75-.49 2.75 3.387 0 3.53.245 3.959 2 3.5 1.651-.432 2-1.364 2-5.349 0-5.312.562-5.108-7.794-2.84-3.94 1.069-4.492.979-6.696-1.092-1.321-1.241-2.539-3.479-2.706-4.974-.184-1.648-.796-2.551-1.554-2.293m-275.5 6.98c-2.159 2.388-2.265 6.62-.218 8.667.843.843 3.093 1.825 5 2.183l3.468.651v16.166c0 13.013.304 16.599 1.557 18.388C90.413 278 91.736 279 92.498 279c2.736 0 2.592 2.113-.426 6.217C87.038 292.062 88.647 299 95.27 299c3.581 0 4.368-1.752 1.397-3.106-2.196-1-4.667-4.616-4.667-6.829 0-.462 1.644-3.231 3.653-6.152 2.089-3.036 3.181-5.468 2.551-5.678-.607-.203-2.251-1.271-3.654-2.374L92 272.855V239h-2.809c-4.039 0-6.361-2.114-7.071-6.439-.604-3.677-.666-3.725-2.37-1.839m37.45 1.478c-1.851 1.851-1.422 6.578.8 8.8 1.719 1.719 3.333 2 11.5 2h9.5v39.835l5.721 6.619c5.875 6.796 8.459 8.259 12.391 7.011l2.256-.716-2.46-1.289c-1.352-.709-4.923-4.12-7.934-7.58l-5.474-6.291-.5-20.044-.5-20.045-9.191-.041c-10.39-.047-13.309-1.497-13.309-6.614 0-3.051-.878-3.567-2.8-1.645M106 236c-1.219.788-1.09.972.691.985 1.205.008 2.469-.435 2.809-.985.787-1.273-1.53-1.273-3.5 0m197.073 9.635c-2.698 3.429-2.614 4.915.451 7.979 2.313 2.314 2.99 2.466 8.141 1.822l5.619-.702-.661 2.633c-.364 1.448-.315 2.626.108 2.618 1.911-.038 3.436-1.936 3.895-4.849l.499-3.168-5.312.617c-4.554.53-5.719.297-8.158-1.631-2.306-1.822-2.738-2.791-2.275-5.102.705-3.528.325-3.564-2.307-.217m79.613 6.15-20.814 5.542-2.428-2.428c-1.335-1.335-2.53-3.664-2.655-5.174-.348-4.205-2.249-2.613-2.6 2.177-.365 4.975 1.038 7.1 4.683 7.094 3.507-.005 44.298-10.766 45.548-12.016 1.356-1.356 1.652-1.421-21.734 4.805M106 258.5c0 1.214 1.597 1.5 8.375 1.5 9.236 0 14.625-.783 14.625-2.125 0-.481-5.175-.875-11.5-.875-9.556 0-11.5.254-11.5 1.5m197.655 11.329c-2.223 2.456-2.091 6.466.283 8.614 2.355 2.132 9.197 1.359 11.254-1.271 1.164-1.488 1.121-1.525-.394-.339-.946.741-2.6 1.047-3.724.691-2.935-.932-6.218-5.496-5.524-7.681.739-2.329.204-2.333-1.895-.014m21.904.704c-1.068.807-1.494 1.467-.946 1.467.547 0 14.671 2.475 31.387 5.5 30.29 5.482 38.327 6.397 39.5 4.5.34-.55.254-1.003-.191-1.007-1.027-.008-17.348-2.862-42.309-7.398-10.725-1.949-20.85-3.766-22.5-4.036-1.791-.294-3.783.099-4.941.974m-210.376 7.746c-.85 1.024.372 1.204 6.128.899 9.614-.509 11.155-2.178 2.011-2.178-4.528 0-7.46.461-8.139 1.279m86.852 36.655c-1.58 2.952-1.238 6.572.794 8.411 1.387 1.256 3.8 1.655 10 1.655H221l.11 12.75c.061 7.012.019 19.574-.093 27.915-.194 14.472-.107 15.216 1.89 16.285l2.093 1.12v-30.035c0-27.926-.123-30.037-1.75-30.066-14.042-.249-18.25-1.892-18.25-7.124 0-3.278-1.458-3.726-2.965-.911M263 319.979c-1.091.689-1.596 3.276-1.853 9.484-.34 8.247.02 9.355 2.523 7.762 1.128-.717 2.408-18.25 1.33-18.212-.275.01-1.175.444-2 .966m-72.193 13.679c-1.38 1.527-1.75 4.402-2 15.558-.281 12.516-.152 13.725 1.504 14.157.996.259 2.021-.076 2.278-.745s.342-7.882.189-16.029c-.263-13.999-.371-14.711-1.971-12.941m54.848 13.171c-2.95 3.259-1.616 9.177 2.345 10.407.825.256 4.36-.32 7.855-1.28l6.355-1.746-.709 6.629c-.685 6.395-.945 6.892-7.394 14.145C243.343 387.09 242 388.978 242 392.004c0 3.444 4.046 7.058 7.027 6.279 3.078-.805 3.199-1.905.411-3.732-3.221-2.11-4.525-5.431-3.161-8.051.573-1.1 4.975-6.5 9.782-12l8.74-10 .35-6.252c.193-3.438.126-6.246-.149-6.239s-2.75.699-5.5 1.538-6.004 1.278-7.232.975c-2.51-.62-5.121-5.112-4.518-7.772.506-2.23-.023-2.21-2.095.079m-39.404 13.421c.456 1.367 6.214 1.159 8.749-.316.992-.578-.305-.883-3.833-.904-3.833-.021-5.216.322-4.916 1.22m-25.509 9.021c-2.306 3.519-2.199 6.272.343 8.814 1.739 1.739 3.064 2.029 8.001 1.75 3.255-.184 5.903-.11 5.886.165s-4.252 5.62-9.41 11.879c-9.744 11.823-11.355 15.161-9.046 18.748 1.697 2.637 6.16 3.887 8.106 2.271 1.2-.995.942-1.485-1.595-3.028-2.928-1.781-3.492-3.146-3.046-7.37.116-1.1 4.411-7.175 9.545-13.5l9.334-11.5-6.344-.294c-7.138-.33-8.53-1.356-9.44-6.952l-.592-3.642zm82.815 17.666c-1.068 1.18-1.813 3.736-1.905 6.538-.13 3.947.109 4.56 1.686 4.313 1.536-.241 1.864-1.314 2-6.538.089-3.438.119-6.251.067-6.25-.052 0-.884.872-1.848 1.937m-51.843 1.061c-.943 1.346-1.714 3.31-1.714 4.365 0 2.267 18.402 21.41 21.882 22.762 1.31.509 3.192.669 4.182.355 1.435-.456-.531-2.839-9.712-11.776-8.916-8.678-11.671-11.988-12.217-14.679l-.707-3.475zm39.925 16.107c-2.14 3.056-2.07 4.078.508 7.354 2.091 2.659 2.372 2.72 10.951 2.385 11.69-.457 14.156-2.563 2.939-2.512-4.437.021-8.544-.439-9.127-1.022s-1.639-2.744-2.346-4.802l-1.287-3.742zm-11.877 28.602c1.244.239 3.044.23 4-.02s-.062-.446-2.262-.435-2.982.216-1.738.455"/></svg>